<svg width="111" height="60" viewBox="0 0 111 60" fill="none" xmlns="http://www.w3.org/2000/svg">
<path d="M27.4239 32.6101C28.3001 30.7111 29.2008 28.8162 30.126 26.9254C38.1837 24.1989 45.257 19.4474 49.2063 13.5065C51.3216 10.3104 52.4037 6.91909 51.8413 3.86325C51.6028 2.55187 51.1871 0.978203 49.6587 0.301161C48.9159 0.013143 48.1092 -0.0703147 47.3229 0.0595289C46.5367 0.189372 45.7999 0.52774 45.1898 1.0392C44.4256 1.77575 43.7449 2.59393 43.1601 3.47899C42.2553 4.64399 41.3749 5.82118 40.5251 6.99838C38.954 9.1698 37.5173 11.3717 36.1356 13.5797C33.3907 17.9713 30.9452 22.4057 28.671 26.8522C26.0435 27.663 23.3552 28.2626 20.6317 28.6454C18.6961 28.9199 16.7472 29.0909 14.7933 29.1578C16.4603 25.4574 18.007 21.755 19.4335 18.0506C19.4885 17.9103 19.2073 17.8859 19.1461 18.0506C18.5348 19.5633 17.844 21.1004 17.1776 22.5764C17.7889 21.0638 18.4003 19.5267 19.0116 18.0384C19.0667 17.8981 18.7916 17.8737 18.7304 18.0384C17.1491 21.7672 15.4699 25.4879 13.6929 29.2005C13.1427 29.2005 12.5925 29.2005 12.0483 29.2005C9.46844 29.1578 7.12083 28.7369 4.60206 28.5905C3.00032 28.4929 1.09901 28.9016 0.322594 30.274C-0.453824 31.6464 0.273691 32.9211 1.41692 33.647C1.48417 33.6897 1.6309 33.6104 1.57588 33.5555C1.24941 33.2435 0.997461 32.8622 0.838721 32.4398C0.679981 32.0175 0.618511 31.565 0.658849 31.1157C0.958411 29.3591 3.25709 28.9992 5.01167 29.2005C7.42283 29.5184 9.84926 29.7078 12.2806 29.7677H13.4545C13.216 30.2557 12.9837 30.7497 12.7453 31.2377C10.63 35.5805 8.60643 40.0941 5.80032 44.3516C5.5619 44.7114 5.96539 44.9005 6.375 44.8395C6.56519 44.9043 6.77138 44.9055 6.96226 44.8427C7.15315 44.78 7.3183 44.6568 7.43263 44.4918C7.51068 44.3668 7.57039 44.2312 7.60992 44.0893C9.44398 39.8197 11.8894 35.5866 13.8579 31.3353C14.1025 30.8046 14.3348 30.274 14.5793 29.7433C18.6668 29.6133 22.7278 29.0385 26.6902 28.0294C27.2466 27.883 27.8029 27.7305 28.3531 27.5658C25.7243 32.7504 23.3033 37.9349 20.8702 43.15C19.6108 45.8398 18.3575 48.5297 17.0737 51.2196C15.7898 53.9094 14.2675 56.5871 13.2405 59.2709C12.9042 60.1492 14.4632 60.2773 14.989 59.4173C17.7278 55.0927 19.4335 50.4754 21.4204 46.0716C23.4073 41.6678 25.3575 37.0688 27.4239 32.6101ZM41.8762 6.22985C42.6649 5.05875 43.4719 3.88765 44.3216 2.72875C44.6627 2.18183 45.0738 1.68154 45.5443 1.24048C46.029 0.80607 46.6233 0.511765 47.2632 0.389243C47.9031 0.266721 48.5643 0.320619 49.1758 0.545139C51.1627 1.35637 51.291 3.88765 51.2177 5.6016C51.071 8.99901 49.3836 12.5489 46.6325 15.806C42.6526 20.466 36.8509 23.9854 30.4806 26.23C33.8389 19.323 37.6455 12.642 41.8762 6.22985Z" fill="#FF471D"/>
<path d="M58.5058 36.6357C58.8665 34.7327 58.9888 32.8419 59.3006 30.9388C59.4045 30.2923 59.2394 29.4262 57.9556 29.8348C57.4907 30.0121 57.0946 30.3326 56.8246 30.7497C56.0051 31.7702 55.0015 32.6287 53.8656 33.281C52.1967 34.141 50.601 33.5799 50.7049 32.2685C50.7966 31.1279 51.9277 30.0788 52.8141 29.0541C53.4927 28.2978 52.0988 27.8342 51.408 28.5905C50.5643 29.5054 49.6657 30.3838 48.7058 31.256C47.8724 32.1138 46.9361 32.8656 45.9181 33.4945C44.0534 34.4643 44.1818 32.6589 44.3958 31.8232C44.4753 31.5061 44.5731 31.2133 44.6831 30.8595C46.5172 29.7616 49.6595 27.8098 48.5958 26.779C47.1102 25.3456 45.1722 28.4197 44.6648 29.2676C44.5181 29.5237 44.3102 29.8775 44.1023 30.274L43.9373 30.3899C42.9102 31.073 38.3862 34.3789 38.2517 32.5674C38.1906 31.7989 39.6272 30.7009 39.3582 30.0361C38.967 29.0846 37.3469 30.6095 36.9495 30.9205C36.4238 31.3353 33.4709 33.9215 32.7862 33.0614C32.5845 32.7992 32.7862 32.3173 32.9574 31.9086C34.1801 31.6403 35.3722 30.9693 35.6657 29.9507C36.008 28.7308 34.1495 28.9809 33.367 29.8836C32.9031 30.421 32.5068 31.013 32.1871 31.6464C31.7085 31.6859 31.2267 31.632 30.7687 31.4878C30.4936 31.4024 30.1941 31.744 30.457 31.8415C30.9579 32.0118 31.4883 32.0782 32.0159 32.0367C31.874 32.2908 31.8073 32.5799 31.8235 32.8704C31.8398 33.1608 31.9383 33.4407 32.1076 33.6775C33.4098 35.0072 36.8273 32.0733 37.781 31.1523C38.5024 30.457 38.3067 30.4692 37.9766 31.1523C37.8196 31.472 37.6908 31.8046 37.5914 32.1465C37.4508 32.6467 37.298 33.281 37.7504 33.6165C39.022 34.5497 42.1216 32.4759 43.5093 31.5854C42.898 33.1529 42.7023 34.812 44.732 34.7876C46.0281 34.7876 47.2997 33.9276 48.2718 33.22C48.6325 32.9578 48.9748 32.6894 49.3111 32.4149C49.2774 32.7286 49.3255 33.0456 49.4508 33.3352C49.5762 33.6248 49.7744 33.8772 50.0264 34.0679C51.463 35.178 53.829 34.4765 55.4979 33.159C55.8743 32.8581 56.2316 32.5342 56.5678 32.1892C56.8857 31.872 57.1792 31.5793 57.4543 31.2133C57.8639 30.7192 57.656 30.5546 58.2735 30.8229C58.891 31.0913 58.5792 32.1953 58.4997 32.7748C58.4019 33.5006 58.194 34.2508 58.0228 34.9828C57.403 37.8813 56.586 40.7343 55.5774 43.522C54.5565 46.2119 53.346 49.0116 51.1268 51.555C49.6167 53.2751 47.3792 55.172 44.7748 55.9711C41.2351 57.0629 38.6613 55.1598 37.8421 53.1714C37.0657 51.3416 37.4631 49.097 38.4107 47.0231C39.5172 44.5833 41.7058 41.7532 45.1906 40.5333C46.2849 40.149 47.636 39.8441 48.3818 40.3869C48.6663 40.6025 48.8815 40.8963 49.001 41.2322C49.1204 41.5681 49.139 41.9315 49.0543 42.2777C48.8464 43.6257 47.7521 44.9676 46.1993 45.9374C45.4412 46.4193 46.346 47.0841 47.0735 46.5474C49.2132 44.9737 50.8089 42.3814 49.9836 40.6187C49.0054 38.5205 45.5574 39.2402 42.9897 40.6919C37.6648 43.6989 35.2561 49.8411 36.7478 53.5008C37.2297 54.6161 38.0407 55.5584 39.0727 56.2024C40.1048 56.8464 41.309 57.1614 42.525 57.1056C45.325 57.069 48.1006 55.4282 50.0691 53.7509C52.3816 51.7438 54.2102 49.2418 55.4185 46.4315C56.8323 43.2996 57.8687 40.0113 58.5058 36.6357ZM34.0517 30.1093C34.284 29.7494 34.4491 29.8836 34.5591 30.5119L34.0089 30.9998C33.7601 31.172 33.4911 31.3134 33.208 31.4207C33.3855 30.9266 33.6717 30.4785 34.0456 30.1093H34.0517ZM45.3312 29.3225C45.5696 28.8589 45.9425 27.9684 46.5539 27.6512C46.8595 27.2059 47.2202 27.2181 47.6237 27.6512C47.3576 27.92 47.0737 28.1706 46.774 28.4014C46.2971 28.7857 45.7774 29.1517 45.2456 29.5054L45.3312 29.3225Z" fill="#FF471D"/>
<path d="M67.5204 32.4698C68.9061 29.5868 70.2979 26.6997 71.6959 23.8086C73.7889 23.7828 75.8723 23.523 77.9072 23.0339C82.8653 21.814 87.5849 19.1425 90.0793 15.5865C92.4635 12.1952 92.5247 8.57208 89.5779 6.35797C86.6312 4.14386 81.9544 4.14386 77.3509 5.9615C72.8636 7.73035 68.1806 11.0058 67.8933 14.6106C67.6976 17.0503 69.7273 19.3133 73.0898 19.1059C72.7046 19.9354 72.3195 20.7588 71.916 21.5457L71.1824 23.0522C67.4714 23.0949 63.3204 22.8875 60.3614 25.675C60.1047 25.919 60.5693 26.1508 60.8383 25.9129C63.4182 23.6012 67.0985 23.6927 70.1614 23.772H70.8217L63.4854 38.6974C62.1038 41.5153 60.7181 44.3353 59.3282 47.1574C57.9099 50.0363 56.192 52.9762 55.2077 55.8735C55.0671 56.2822 55.7763 56.3554 56.0392 55.9406C58.454 52.1284 59.9885 48.0662 61.8531 44.1869C63.7178 40.3076 65.6252 36.4162 67.5204 32.4698ZM73.1937 20.7039C73.4688 20.1306 73.7439 19.5633 74.0129 18.99C74.3186 18.929 74.6243 18.8558 74.9544 18.7582C76.6839 18.2813 78.2194 17.2742 79.3439 15.8792C80.1692 14.7142 80.2915 13.1345 78.8793 12.5916C77.4671 12.0488 76.0793 13.1528 75.4802 14.2324C74.7282 15.5804 74.0741 16.9528 73.4321 18.3251C72.7513 18.3985 72.0627 18.332 71.4086 18.1299C70.6075 17.8995 69.9177 17.3864 69.4678 16.6861C69.0179 15.9859 68.8385 15.1463 68.9631 14.3239C69.385 10.7618 74.5631 7.61446 79.0138 6.18108C83.6112 4.71721 87.9395 5.60773 89.8103 8.2488C91.681 10.8899 90.1587 14.7264 86.9797 17.6176C83.3727 20.9052 77.8522 22.7351 72.8758 23.0278L72.0627 23.0644L73.1937 20.7039ZM76.0426 14.824C76.2104 14.3635 76.4799 13.9465 76.8313 13.6041C77.3507 13.3237 77.9533 13.2372 78.5308 13.3602C78.812 13.4517 78.9404 14.025 78.971 14.2507C79.0749 15.0497 78.3902 15.9829 77.5221 16.6905C76.6051 17.4082 75.5437 17.92 74.4103 18.1909C74.9422 17.0503 75.4802 15.9341 76.0426 14.824Z" fill="#FF471D"/>
<path d="M107.199 27.3462C107.199 27.0779 106.723 27.0779 106.551 27.3462C105.445 29.109 104.95 31.0852 103.427 32.7748C102.602 33.6897 101.184 34.7205 99.7592 34.5253C98.4754 34.3545 98.1024 33.2505 97.9863 32.3966C97.9363 31.9915 97.9363 31.5818 97.9863 31.1767C98.4204 30.8041 98.8308 30.4048 99.2151 29.9812C99.8265 29.3286 101.373 27.7976 100.921 27.1023C100.597 26.5899 99.6064 26.6814 98.9706 27.145C97.6684 28.0965 97.1365 30.0361 96.9225 31.1401C96.9225 31.2133 96.9225 31.2804 96.892 31.3536L96.5802 31.5854C96.4905 31.6029 96.4053 31.6382 96.3295 31.6891C94.6544 32.8053 92.1051 34.2691 90.1304 33.7751C88.8282 33.4457 88.6754 32.4515 88.871 31.4207C89.5565 30.8999 90.2022 30.3291 90.8029 29.7128C91.7688 28.6454 92.9915 27.0352 92.8815 25.8885C92.8143 25.2358 91.8239 25.0345 91.0474 25.6323C90.4361 26.1081 90.1793 26.9498 89.8247 27.4987C89.2507 28.4028 88.738 29.3442 88.2902 30.3167C88.1215 30.6665 87.9765 31.0271 87.8562 31.3963C87.4325 31.7314 86.9632 32.0045 86.4623 32.2075C83.9863 33.0493 84.8911 31.2743 84.94 30.457C84.966 30.3056 84.9611 30.1506 84.9256 30.0012C84.8901 29.8517 84.8247 29.711 84.7334 29.5874C84.642 29.4638 84.5266 29.3599 84.394 29.2819C84.2615 29.2039 84.1145 29.1534 83.9619 29.1334C83.532 29.0485 83.089 29.0558 82.6621 29.1546C82.2353 29.2535 81.8343 29.4417 81.4859 29.7067C80.3485 30.5978 79.3222 31.6217 78.4291 32.7565C78.5754 32.017 78.6531 31.2656 78.6614 30.5119C78.6369 30.2986 78.5439 30.099 78.3962 29.9429C78.2485 29.7868 78.0542 29.6825 77.8422 29.6457C77.3721 29.5475 76.8839 29.5791 76.4304 29.7371C75.9769 29.8951 75.5751 30.1735 75.2684 30.5424C74.9566 29.8043 74.6265 29.0724 74.2964 28.3405C74.5165 28.1148 74.7488 27.9013 74.9933 27.6878C75.14 27.5658 74.9628 27.4377 74.8038 27.5536C74.6449 27.6695 74.382 27.8891 74.1925 28.066C73.6606 26.8827 73.1226 25.7055 72.5479 24.5405C72.444 24.327 71.8999 24.5405 71.9671 24.7723C72.389 26.163 72.8352 27.5414 73.2938 28.9199C72.2336 29.9578 71.5223 31.2983 71.2579 32.7565C71.1479 33.5616 71.258 35.6659 73.1715 34.5863C73.7962 34.1849 74.3209 33.6467 74.706 33.0127C75.1767 34.3118 75.6536 35.6049 76.1549 36.8919C76.8885 38.7828 77.6364 40.6695 78.3986 42.5522C78.8061 43.5444 79.2137 44.5366 79.6213 45.5288C80.0248 46.4864 80.2693 47.3586 81.1863 48.0784C81.2558 48.1113 81.3313 48.1298 81.4082 48.1325C81.4851 48.1352 81.5617 48.1221 81.6333 48.0941C81.705 48.0661 81.7701 48.0237 81.8246 47.9696C81.8792 47.9155 81.922 47.8508 81.9505 47.7795C82.0911 46.6633 81.5715 45.8155 81.1619 44.8517C80.7523 43.888 80.3243 42.8816 79.9392 41.8935C79.124 39.9579 78.3374 38.0203 77.5793 36.0807C76.968 34.5477 76.3424 33.0249 75.7025 31.5122C75.8124 31.3102 75.9458 31.1219 76.0999 30.951C76.644 30.4021 77.4448 30.2679 77.6466 30.9205C77.7811 31.3658 77.3715 32.2197 77.3531 32.7504C77.3364 33.2163 77.4048 33.6813 77.5549 34.1228C77.6466 34.3911 78.209 34.4277 78.4719 34.1228C79.1322 33.3176 79.8169 32.5308 80.5505 31.7562C80.9112 31.3719 81.2719 30.9632 81.6815 30.6034C82.5741 29.8348 83.8335 29.475 83.9863 30.5546C84.078 31.2255 83.5461 32.0306 83.7907 32.6772C84.2981 34.0374 86.0221 33.4091 87.6605 32.36C87.5996 32.7909 87.6677 33.2302 87.8562 33.6226C88.4675 34.7876 90.3016 35.1536 92.1357 34.7937C93.9472 34.415 95.5987 33.491 96.8675 32.1465C96.8675 34.0679 97.9252 36.1661 101.147 35.3549C105.329 34.2874 107.193 29.7616 107.199 27.3462ZM73.2999 33.4457C71.7409 34.751 72.1322 32.1465 72.3156 31.5366C72.5574 30.754 72.9407 30.0222 73.4466 29.3774C73.7462 30.274 74.0579 31.1645 74.3697 32.055C74.1002 32.5792 73.7377 33.0504 73.2999 33.4457ZM89.3418 29.9324C89.678 29.0346 90.0869 28.1656 90.5645 27.334C90.7968 26.9254 91.6343 25.919 91.7199 26.7912C91.7199 27.023 91.3959 27.4682 91.2492 27.7244C90.731 28.6063 90.0886 29.4095 89.3418 30.1093C89.3225 30.1346 89.2999 30.1572 89.2745 30.1764L89.3418 29.9324ZM98.3837 29.5909C98.5444 29.194 98.7365 28.8105 98.9583 28.4442C99.128 28.1507 99.318 27.8694 99.5269 27.6024C99.9487 27.7976 99.9915 28.0599 99.6492 28.3771C99.2885 29.1347 98.7695 29.8064 98.1269 30.3472C98.1978 30.0903 98.2835 29.8378 98.3837 29.5909Z" fill="#FF471D"/>
<path d="M105.202 25.7788C106.339 25.0062 107.367 24.0851 108.258 23.0401C109.151 22.1557 110.636 21.0822 110.759 20.0757C110.759 19.8562 110.49 19.661 110.147 19.7891C108.845 20.2831 108.154 21.3566 107.335 22.2289C106.357 23.2597 105.073 24.3515 104.56 25.486C104.474 25.7483 104.835 25.9922 105.202 25.7788Z" fill="#FF471D"/>
</svg>
