<?xml version="1.0" encoding="UTF-8" standalone="no"?>
<!-- Created with Inkscape (http://www.inkscape.org/) -->

<svg
   version="1.1"
   id="svg810"
   xml:space="preserve"
   width="682.66669"
   height="682.66669"
   viewBox="0 0 682.66669 682.66669"
   xmlns="http://www.w3.org/2000/svg"
   xmlns:svg="http://www.w3.org/2000/svg"><defs
     id="defs814"><clipPath
       clipPathUnits="userSpaceOnUse"
       id="clipPath826"><path
         d="M 0,512 H 512 V 0 H 0 Z"
         id="path824" /></clipPath></defs><g
     id="g816"
     transform="matrix(1.3333333,0,0,-1.3333333,0,682.66667)"><path
       d="M 418,216 H 378 V 80 h 40 z"
       style="fill:none;stroke:#000000;stroke-width:20;stroke-linecap:round;stroke-linejoin:round;stroke-miterlimit:10;stroke-dasharray:none;stroke-opacity:1"
       id="path818" /><g
       id="g820"><g
         id="g822"
         clip-path="url(#clipPath826)"><g
           id="g828"
           transform="translate(418,222.5628)"><path
             d="M 0,0 59.967,35.293 C 70.596,41.549 84,33.885 84,21.551 v -192.227 c 0,-12.334 -13.404,-19.998 -24.033,-13.742 L 0,-149.126 Z"
             style="fill:none;stroke:#000000;stroke-width:20;stroke-linecap:round;stroke-linejoin:round;stroke-miterlimit:10;stroke-dasharray:none;stroke-opacity:1"
             id="path830" /></g><g
           id="g832"
           transform="translate(330,200)"><path
             d="m 0,0 c 0,-13.255 -10.745,-24 -24,-24 -13.255,0 -24,10.745 -24,24 0,13.255 10.745,24 24,24 C -10.745,24 0,13.255 0,0 Z"
             style="fill:none;stroke:#000000;stroke-width:20;stroke-linecap:round;stroke-linejoin:round;stroke-miterlimit:10;stroke-dasharray:none;stroke-opacity:1"
             id="path834" /></g><g
           id="g836"
           transform="translate(194,24)"><path
             d="M 0,0 V 0"
             style="fill:none;stroke:#000000;stroke-width:20;stroke-linecap:round;stroke-linejoin:round;stroke-miterlimit:10;stroke-dasharray:none;stroke-opacity:1"
             id="path838" /></g><g
           id="g840"
           transform="translate(383.9428,380)"><path
             d="m 0,0 c 0,59.647 -48.353,108 -108,108 -59.647,0 -108,-48.353 -108,-108 0,-59.647 48.353,-108 108,-108 59.647,0 108,48.353 108,108 z"
             style="fill:none;stroke:#000000;stroke-width:20;stroke-linecap:round;stroke-linejoin:round;stroke-miterlimit:10;stroke-dasharray:none;stroke-opacity:1"
             id="path842" /></g><g
           id="g844"
           transform="translate(343.9428,380)"><path
             d="m 0,0 c 0,37.555 -30.445,68 -68,68 -37.555,0 -68,-30.445 -68,-68 0,-37.555 30.445,-68 68,-68 37.555,0 68,30.445 68,68 z"
             style="fill:none;stroke:#000000;stroke-width:20;stroke-linecap:round;stroke-linejoin:round;stroke-miterlimit:10;stroke-dasharray:none;stroke-opacity:1"
             id="path846" /></g><g
           id="g848"
           transform="translate(275.9428,407.3333)"><path
             d="M 0,0 V 0"
             style="fill:none;stroke:#000000;stroke-width:20;stroke-linecap:round;stroke-linejoin:round;stroke-miterlimit:10;stroke-dasharray:none;stroke-opacity:1"
             id="path850" /></g><g
           id="g852"
           transform="translate(275.9428,352.6667)"><path
             d="M 0,0 V 0"
             style="fill:none;stroke:#000000;stroke-width:20;stroke-linecap:round;stroke-linejoin:round;stroke-miterlimit:10;stroke-dasharray:none;stroke-opacity:1"
             id="path854" /></g><g
           id="g856"
           transform="translate(303.2761,380)"><path
             d="M 0,0 V 0"
             style="fill:none;stroke:#000000;stroke-width:20;stroke-linecap:round;stroke-linejoin:round;stroke-miterlimit:10;stroke-dasharray:none;stroke-opacity:1"
             id="path858" /></g><g
           id="g860"
           transform="translate(248.6095,380)"><path
             d="M 0,0 V 0"
             style="fill:none;stroke:#000000;stroke-width:20;stroke-linecap:round;stroke-linejoin:round;stroke-miterlimit:10;stroke-dasharray:none;stroke-opacity:1"
             id="path862" /></g><g
           id="g864"
           transform="translate(170,352)"><path
             d="m 0,0 c 0,44.183 -35.817,80 -80,80 -44.183,0 -80,-35.817 -80,-80 0,-44.183 35.817,-80 80,-80 44.183,0 80,35.817 80,80 z"
             style="fill:none;stroke:#000000;stroke-width:20;stroke-linecap:round;stroke-linejoin:round;stroke-miterlimit:10;stroke-dasharray:none;stroke-opacity:1"
             id="path866" /></g><g
           id="g868"
           transform="translate(126,352)"><path
             d="m 0,0 c 0,19.882 -16.118,36 -36,36 -19.882,0 -36,-16.118 -36,-36 0,-19.882 16.118,-36 36,-36 19.882,0 36,16.118 36,36 z"
             style="fill:none;stroke:#000000;stroke-width:20;stroke-linecap:round;stroke-linejoin:round;stroke-miterlimit:10;stroke-dasharray:none;stroke-opacity:1"
             id="path870" /></g><g
           id="g872"
           transform="translate(149.0002,24)"><path
             d="m 0,0 h -115 c -13.255,0 -24,10.745 -24,24 v 200 c 0,13.255 10.745,24 24,24 h 320 c 13.255,0 24,-10.745 24,-24 V 24 C 229,10.745 218.255,0 205,0 H 90"
             style="fill:none;stroke:#000000;stroke-width:20;stroke-linecap:round;stroke-linejoin:round;stroke-miterlimit:10;stroke-dasharray:none;stroke-opacity:1"
             id="path874" /></g><path
           d="M 238,168 H 64 V 72 h 174 z"
           style="fill:none;stroke:#000000;stroke-width:20;stroke-linecap:round;stroke-linejoin:round;stroke-miterlimit:10;stroke-dasharray:none;stroke-opacity:1"
           id="path876" /><path
           d="m 330,80 h -48 v 48 h 48 z"
           style="fill:none;stroke:#000000;stroke-width:20;stroke-linecap:round;stroke-linejoin:round;stroke-miterlimit:10;stroke-dasharray:none;stroke-opacity:1"
           id="path878" /></g></g></g></svg>
