<svg id="Layer_1" height="512" viewBox="0 0 512 512" width="512" xmlns="http://www.w3.org/2000/svg" data-name="Layer 1"><path d="m246.169 470.034a8 8 0 0 1 -8 8h-36.255a8 8 0 0 1 0-16h36.255a8 8 0 0 1 8 8zm213.067-188.367a14.479 14.479 0 0 1 -10.136 17.633l-8.485 2.257a14.389 14.389 0 0 1 -17.61-10.157l-1.175-4.386a104.649 104.649 0 0 0 -53.291-2.619l11.468 42.828a8 8 0 0 1 -5.658 9.8l-14.961 4.006v122.485a40.532 40.532 0 0 1 -40.488 40.486h-197.718a40.532 40.532 0 0 1 -40.487-40.486v-219.286h-34.066a29.918 29.918 0 0 1 -29.884-29.884v-72.6a29.918 29.918 0 0 1 29.884-29.884h34.066v-33.553a40.532 40.532 0 0 1 40.487-40.486h163.728a29.916 29.916 0 0 1 29.882-29.821h90.823a29.918 29.918 0 0 1 29.885 29.884v72.6a29.932 29.932 0 0 1 -29.884 29.913h-46.228v60.856a103.391 103.391 0 0 0 32.982-24.176l-1.174-4.379a14.411 14.411 0 0 1 10.2-17.615l8.4-2.262a14.419 14.419 0 0 1 17.633 10.2l9.141 34.105a27.34 27.34 0 0 1 25.384 20.233 27.321 27.321 0 0 1 -11.865 30.2zm-17.964-67.021 4.125 15.388a11.164 11.164 0 0 0 1.11-8.531 11.293 11.293 0 0 0 -5.235-6.857zm-92.391 58.19-12.591-47.021-36.805 9.863a3.593 3.593 0 0 0 -2.506 4.38l10.743 40.107a3.588 3.588 0 0 0 4.378 2.535zm-47.973-162.356a13.914 13.914 0 0 0 13.884 13.913h9.3a8 8 0 0 1 8 8v5.254l10.205-10.76a8 8 0 0 1 5.805-2.494h57.515a13.914 13.914 0 0 0 13.883-13.913v-72.6a13.9 13.9 0 0 0 -13.885-13.88h-90.823a13.9 13.9 0 0 0 -13.884 13.884zm-109.943-56.659c2.439 2.729 4.891 4.467 7.746 4.467h44.675c2.41 0 3.97-1.14 6.365-4.467zm-144.336 174.407h57.516a8 8 0 0 1 5.807 2.5l10.2 10.769v-5.267a8 8 0 0 1 8-8h9.3a13.9 13.9 0 0 0 13.884-13.884v-72.6a13.9 13.9 0 0 0 -13.884-13.884h-90.823a13.9 13.9 0 0 0 -13.884 13.884v72.6a13.9 13.9 0 0 0 13.884 13.882zm50.066 16v191.812h34.147v-65.7c0-26.513 22.956-48.083 51.172-48.083h6.9a64.148 64.148 0 0 1 -7.53-9.956c-7.918-12.851-12.646-30.2-12.646-46.42a56.446 56.446 0 0 1 112.891 0c0 20.744-6.919 42.253-20.149 56.376h6.876c28.216 0 51.172 21.57 51.172 48.083v65.7h23.857v-100.73l-18.513-39.471-8.635 2.316a19.7 19.7 0 0 1 -5.086.672 19.614 19.614 0 0 1 -18.89-14.535l-10.741-40.1a19.631 19.631 0 0 1 13.793-23.963l44.562-11.942c1.185-.318 2.35-.658 3.51-1v-58.3l-13.485 14.225a8 8 0 0 1 -13.805-5.5v-17.319h-1.3a29.932 29.932 0 0 1 -29.884-29.913v-56.659h-12.867a5.31 5.31 0 0 0 -4.642 2.4c-.652.922-1.3 1.919-1.977 2.974-3.882 6.012-9.749 15.1-22.039 15.1h-44.675c-13.361 0-20.989-10.922-25.547-17.447l-.452-.648a5.377 5.377 0 0 0 -4.645-2.372h-46.885a24.514 24.514 0 0 0 -24.482 24.479v33.556h40.757a29.918 29.918 0 0 1 29.884 29.884v72.6a29.918 29.918 0 0 1 -29.884 29.884h-1.3v17.339a8 8 0 0 1 -13.807 5.5l-21.65-22.842zm187.374 150.857v40.955h19.462v-65.7c0-17.691-15.778-32.083-35.172-32.083h-86.345c-19.394 0-35.172 14.392-35.172 32.083v65.7h19.433v-40.955a8 8 0 0 1 16 0v40.955h85.794v-40.955a8 8 0 0 1 16 0zm-58.882-72.83c23.477 0 35.209-21.952 39.012-41.9-16.219-2.009-31.347-6.011-50.226-19.761l-28.261 17.112c3.241 20.6 14.952 44.549 39.475 44.549zm-14.859-78.155a8 8 0 0 1 9.084.552c17.8 13.974 30.784 17.816 46.183 19.762a40.437 40.437 0 0 0 -80.3-5.156zm133.06 219.418v-11.478h-246.688v11.474a24.514 24.514 0 0 0 24.482 24.486h197.718a24.514 24.514 0 0 0 24.488-24.486zm19.094-139.881-9.462-35.341-12.446 3.337 15.78 33.645zm54.568-54.457-19.892-74.234a120.756 120.756 0 0 1 -45.475 26.5l12.717 47.484a122.919 122.919 0 0 1 52.65.246zm26.319 15.094-30.979-115.585-5.319 1.433 30.968 115.566zm51.612-75.8a8 8 0 0 0 -9.8-5.653l-12.36 3.317a8 8 0 1 0 4.147 15.453l12.359-3.317a8 8 0 0 0 5.654-9.802zm-9.065 35.733-11.084-6.379a8 8 0 0 0 -7.98 13.868l11.084 6.378a8 8 0 0 0 7.98-13.867zm-33.987-48.107a8 8 0 0 0 10.929-2.923l6.407-11.083a8 8 0 0 0 -13.854-8.007l-6.406 11.083a8 8 0 0 0 2.924 10.93zm-342.273 21.681-17.618-8.667-17.645 8.668a8 8 0 0 1 -11.446-8.325l2.811-19.433-13.7-14.1a8 8 0 0 1 4.382-13.459l19.36-3.329 9.161-17.378a8 8 0 0 1 14.154 0l9.16 17.377 19.362 3.329a8 8 0 0 1 4.382 13.459l-13.7 14.1 2.787 19.439a8 8 0 0 1 -11.45 8.314zm-5.556-36.081 5.866-6.036-8.286-1.425a8 8 0 0 1 -5.722-4.154l-3.921-7.439-3.922 7.439a8 8 0 0 1 -5.722 4.154l-8.285 1.424 5.866 6.037a8 8 0 0 1 2.179 6.72l-1.2 8.314 7.56-3.713a8 8 0 0 1 7.058 0l7.545 3.711-1.193-8.324a8 8 0 0 1 2.177-6.708zm222.4-80.056h67.409a8 8 0 0 0 0-16h-67.409a8 8 0 0 0 0 16zm0-38.92h67.409a8 8 0 0 0 0-16h-67.409a8 8 0 0 0 0 16z"/></svg>